<?xml version="1.0" encoding="UTF-8"?>
<svg viewBox="0 0 640 480" xmlns="http://www.w3.org/2000/svg">
 <defs>
  <filter id="f" x="-.017174" y="-.10783" width="1.0343" height="1.2157">
   <feGaussianBlur stdDeviation="2.920164"/>
  </filter>
  <filter id="g" x="-.07764" y="-.13568" width="1.1553" height="1.2714">
   <feGaussianBlur stdDeviation="4.722181"/>
  </filter>
  <linearGradient id="h" x1=".30562" x2=".6969" y1=".51036" y2=".51036">
   <stop stop-color="#a05a2c" offset="0"/>
   <stop stop-color="#502d16" offset="1"/>
  </linearGradient>
  <linearGradient id="i" x1=".12332" x2=".93575" y1=".35858" y2=".35858">
   <stop stop-color="#ccc" offset="0"/>
   <stop stop-color="#e6e6e6" offset="1"/>
  </linearGradient>
  <linearGradient id="j" x1=".31642" x2=".97612" y1=".88452" y2=".88452">
   <stop stop-color="#fff" offset="0"/>
   <stop stop-color="#808080" offset="1"/>
  </linearGradient>
 </defs>
 <path d="m239.05 426.77c1.1015 6.2951 31.349 36.381 81.663 34.059 50.314-2.3222 68.409-25.372 70.826-36.38 4.3243-19.698-16.086-70.399-19.738-99.853-3.3395-26.926-10.101-56.171-0.77405-63.086 22.448-16.642 50.701-68.504 53.797-83.985 3.0961-15.482 23.996-113.01 23.222-122.3-0.77386-9.2887-6.6627 23.19-48.378 26.705-68.891 5.8054-102.56 11.611-135.85 3.0962-33.285-8.5147-62.699-14.32-72.762-27.479s-4.6438 5.4184-4.6438 5.4184 17.029 82.824 23.222 98.305c6.1921 15.481 21.649 70.375 35.606 83.598 14.707 13.933 21.287 20.512 21.674 25.931 0.99884 13.983-0.38702 35.993-5.8054 59.989-5.3915 23.877-17.907 60.923-18.964 70.439-1.1614 10.45-4.1982 19.249-3.0961 25.544z" fill="url(#h)" stroke="#000" stroke-width="3"/>
 <path d="m440.03 34.638c0 17.234-55.378 31.204-123.69 31.204s-135.17-18.353-123.69-31.204c14.707-16.46 55.378-31.204 123.69-31.204s123.69 13.97 123.69 31.204z" fill="url(#i)"/>
 <path d="m205.77 25.994s-68.891 21.355 79.728 47.809c95.64 17.024 139.33-12.977 139.33-12.977l20.9-15.572-6.9665-9.3797-2.3222 3.3239s-26.318 23.722-109.14 23.722c-82.824 0-128.49-5.5095-121.53-36.927z" fill="#ececec" filter="url(#f)"/>
 <path d="m194.16 32.779s35.607-32.51 123.08-30.188c87.468 2.3222 126.56 23.561 124.92 35.128" fill="none" stroke="#000" stroke-width="3"/>
 <path d="m188.74 38.197s-1.5481 30.188 95.209 37.929c96.757 7.7406 139.33-11.611 139.33-11.611l22.448-12.385-6.1924-15.481-4.6443 8.5146s-30.188 23.996-113.01 23.996c-82.824 0-105.27-13.933-133.14-30.962z" fill="#ececec"/>
 <path d="m425.6 24.264s26.676 13.116-7.7406 27.866c-5.4184 2.3222-51.862 22.448-62.698 23.996-10.837 1.5481 63.473-3.8703 77.406-10.837 13.933-6.9665 14.707-20.125 10.063-27.866-4.6443-7.7406-17.029-13.159-17.029-13.159z" fill="#999" filter="url(#g)"/>
 <g stroke="#000">
  <path d="m194.49 32.683s-19.691 19.447 22.882 31.058 99.853 14.707 99.853 14.707 44.001 0.96973 83.598-6.9665c33.812-6.7767 34.832-13.159 38.703-15.481 3.8703-2.3222 3.8703-13.159 1.5481-19.351" fill="none" stroke-width="3"/>
  <path d="m186.42 45.164l1.5481 20.125s58.054 25.544 124.62 27.866c51.062 1.7812 120.75-13.933 126.94-21.674 6.1924-7.7406 6.1924-22.448 6.1924-22.448l-14.707 14.707s-73.535 20.9-133.14 13.933c-59.602-6.9665-95.209-18.577-102.95-23.222-7.7406-4.6443-8.5146-9.2887-8.5146-9.2887z" fill="url(#j)" stroke-width="6"/>
  <g fill="none" stroke-linecap="round">
   <g stroke-width="7">
    <path d="m264.59 261.9s56.969 23.999 104.96-0.77054"/>
    <path d="m265.02 264.38s52.074 26.903 101.7 5.588"/>
   </g>
   <path d="m267.24 274.14s52.536 26.726 99.065 0.99191" stroke-width="6.929"/>
   <g stroke-linejoin="round" stroke-width="7">
    <path d="m409.59 212.95l22.108-150.53-3.7746 1.3221s-13.298 118.28-27.092 150.17c-13.794 31.891-33.284 44.895-33.284 44.895s13.081-9.4335 23.996-38.703c10.915-29.269 23.126-153.33 23.126-153.33l-4.1138 0.4524s-15.87 84.016-25.205 116.5c-9.3344 32.484-28.64 81.276-28.64 81.276s14.167-40.12 20.125-71.987c5.9588-31.867 11.611-121.24 11.611-121.24l-4.3051 0.8697-35.172 194.68s9.6126-78.648 10.063-94.435c0.45016-15.787 0.97598-80.109 0.050629-96.878-1.6128 0.096222-4.695 0.068771-4.695 0.068771l-30.188 193.57s5.8319-58.519 6.1924-90.564c0.36054-32.045-4.6443-101.4-4.6443-101.4l-4.4008 0.1913s-12.628 136.04-12.628 139.91v51.088s-1.9902-48.502-3.8703-80.502c-1.8801-31.999-7.7406-113.16-7.7406-113.16l-5.514-0.3392s-5.0333 92.538-3.0006 124.34c2.0328 31.798 10.063 68.117 10.063 68.117s-12.353-47.479-17.803-79.728-13.498-116.16-13.498-116.16l-4.74-0.2435s0.71509 82.337 3.5311 110.21c2.816 27.875 6.556 45.986 10.063 60.376 3.5067 14.391 8.5146 26.318 8.5146 26.318s-15.255-35.422-23.222-68.117c-7.9668-32.695-19.351-132.9-19.351-132.9l-6.6273-0.7741s6.2609 82.238 10.498 108.13c4.2366 25.895 6.2437 36.592 11.611 51.862 5.3671 15.269 19.351 39.477 19.351 39.477s-23.112-35.995-34.832-69.665c-11.721-33.67-27.866-135.85-27.866-135.85l-5.4184-1.5481s18.756 122.85 31.736 155.98c12.98 33.125 29.414 48.766 29.414 48.766s-30.74-45.033-44.121-79.728-29.171-130.87-29.171-130.87-0.67636-4.1445-4.2095-2.5745c4.9468 87.387 31.058 149.7 31.058 149.7"/>
    <path d="m438.76 55.226l0.7739 16.255 5.4183-4.6443-6.1922-11.611z"/>
    <path d="m189.51 38.197l-6.1924 23.222 6.9665 11.611s17.2 93.693 30.962 124.62c13.762 30.93 21.674 50.314 41.799 61.924 20.125 11.611 13.933 6.1924 13.933 6.1924s82.824 1.5481 91.339-3.8703c8.5146-5.4184 26.549-19.632 42.573-51.088 16.024-31.455 34.058-126.94 35.606-140.88 1.5481-13.933-3.0962-30.962-3.0962-30.962"/>
   </g>
  </g>
 </g>
 <g fill="none" stroke="#422512" stroke-dasharray="32,16,8,16" stroke-linejoin="bevel" stroke-width="16">
  <path d="m244.72 405.63s35.112 27.86 73.535 27.092c38.703-0.77411 71.213-27.866 71.987-30.962"/>
  <path d="m251.16 372.71s30.329 27.92 68.752 27.152c38.703-0.77405 57.95-29.058 58.724-32.154"/>
 </g>
</svg>
